<svg xmlns="http://www.w3.org/2000/svg" viewBox="0 0 500 500"><g id="freepik--Hands--inject-17"><path d="M336.85,127.16s2.48,15.6,2.86,18.58,10.41,1.58,13,1.38,11.94.15,14-1.75S363,141,363,141s5.18-1.39,6.15-3.52-5.35-2.18-5.35-2.18,2.31-3.47,1-5.79-11.4-11.78-18.05-11S336.85,127.16,336.85,127.16Z" style="fill:#fff"></path><path d="M345.33,148.11c-3.4,0-5.89-.55-6.12-2.31-.37-2.93-2.82-18.4-2.85-18.56a.63.63,0,0,1,0-.27c.14-.33,3.45-8,10.31-8.91s17.18,8.75,18.55,11.2c1.05,1.88,0,4.34-.59,5.56,1.47.07,4.15.37,4.88,1.52a1.33,1.33,0,0,1,.07,1.33c-.76,1.68-3.58,2.85-5.26,3.42,1.24.67,3,1.85,3.25,3.12a1.64,1.64,0,0,1-.58,1.53c-1.6,1.48-6.69,1.7-11.76,1.8-1.06,0-2,0-2.53.08l-1.2.11C349.34,147.94,347.2,148.11,345.33,148.11Zm-8-20.88c.25,1.6,2.48,15.65,2.84,18.44.27,2.14,8.51,1.33,11.22,1.06l1.22-.11c.59-.05,1.52-.06,2.59-.08,3.37-.07,9.65-.19,11.1-1.53a.64.64,0,0,0,.27-.63c-.17-1-2.43-2.33-3.81-2.93a.51.51,0,0,1,.07-.95c1.38-.36,5.11-1.67,5.83-3.24a.35.35,0,0,0,0-.38c-.47-.73-3.15-1.08-4.9-1.09a.51.51,0,0,1-.44-.26.54.54,0,0,1,0-.52s2.11-3.24,1-5.26-11.07-11.52-17.55-10.7C341,119.78,337.82,126.25,337.37,127.23Z" style="fill:#263238"></path><path d="M336.85,129.83a5.22,5.22,0,0,1,5.23.3c2.5,1.77,3,7.61,4.48,9.35s5.06,2.07,5.06,2.07-4.62-5.91-3.19-7,5.87,3.88,7,4.32,2.31-6.14,1.49-7.94-5.18-9.29-8.85-8.83S338.08,126.12,336.85,129.83Z" style="fill:#263238"></path><path d="M351.62,142.05h-.05c-.15,0-3.76-.37-5.39-2.23a11.93,11.93,0,0,1-1.66-3.87c-.66-2.09-1.41-4.46-2.73-5.41a4.75,4.75,0,0,0-4.7-.26.5.5,0,0,1-.71-.6c1.31-4,8-7.65,11.66-8.11,4.6-.57,9.33,9,9.37,9.12.78,1.7,0,7.07-1.12,8.32a.88.88,0,0,1-1,.3,9.81,9.81,0,0,1-2.15-1.63c-1.23-1.06-3.78-3.27-4.41-2.76s1,3.44,3.27,6.33a.52.52,0,0,1,.05.55A.51.51,0,0,1,351.62,142.05Zm-12.29-13.3a5.14,5.14,0,0,1,3,1c1.61,1.13,2.41,3.68,3.12,5.92a11.45,11.45,0,0,0,1.46,3.51,6.83,6.83,0,0,0,3.52,1.7c-1.58-2.17-3.74-5.62-2.34-6.73s3.62,1,5.68,2.79a14.65,14.65,0,0,0,1.77,1.41c.67-.61,1.64-5.66.93-7.23-.9-2-5.13-8.91-8.33-8.53s-8.47,3.26-10.35,6.38A6,6,0,0,1,339.33,128.75Z" style="fill:#263238"></path><path d="M405.19,59.16s-40.71,37.49-54.81,45.5-20.45,16-22,19.67S318.11,138,313.49,145.59s3.76,4.74,8.38.71S332.38,136.05,334.2,133s11.79-9.55,16.56-6.87,3.71,9.6,3.27,14.31-.25,10.11,1.11,12.4,4.32.29,4.81-2.18,3.36-16,5-18.08,7.25-7.48,11.11-12.46a35.36,35.36,0,0,0,5-8.09l41.23-27.1Z" style="fill:#fff"></path><path d="M356.75,154.31a2.33,2.33,0,0,1-2-1.24c-1.51-2.54-1.6-8.22-1.18-12.7l.09-1c.47-4.68,1.05-10.51-3.11-12.85-4.4-2.47-14.09,3.67-15.88,6.69-1.91,3.22-8,9.56-12.43,13.46-2.95,2.57-8.18,5.23-10,3.71-1-.84-.71-2.5.85-5.06,2.29-3.75,5.57-8.12,8.47-12s5.58-7.43,6.36-9.22c1.95-4.46,8.95-12.35,22.24-19.9,13.89-7.89,54.31-45.07,54.72-45.44a.49.49,0,0,1,.4-.13.51.51,0,0,1,.35.22l17.17,25.75a.48.48,0,0,1,.07.37.47.47,0,0,1-.21.32l-41.1,27a37.8,37.8,0,0,1-5,8.06c-2.48,3.19-5.7,6.62-8.06,9.11-1.33,1.42-2.47,2.64-3.06,3.36-1.38,1.71-4,13-4.92,17.86a4.55,4.55,0,0,1-3.27,3.56ZM348,125a6.11,6.11,0,0,1,3,.7c4.73,2.66,4.09,9.11,3.62,13.82l-.09,1c-.51,5.43-.1,10.18,1,12.09a1.3,1.3,0,0,0,1.43.74,3.55,3.55,0,0,0,2.46-2.76c0-.16,3.2-15.93,5.12-18.3.61-.75,1.72-1.93,3.12-3.41,2.34-2.49,5.54-5.89,8-9a35.29,35.29,0,0,0,5-8,.57.57,0,0,1,.19-.24l40.82-26.82L405.1,59.92c-4.42,4-41.26,37.67-54.47,45.18-14,8-20.3,16-21.82,19.43-.83,1.89-3.45,5.38-6.48,9.42-2.89,3.84-6.15,8.19-8.42,11.9-1.74,2.86-1.24,3.61-1.05,3.77,1,.83,5.37-.81,8.68-3.7,4.41-3.84,10.37-10.07,12.23-13.21C335.45,129.88,342.71,125,348,125Z" style="fill:#263238"></path><polyline points="437.87 30.45 417.09 49.81 437.01 76.63 460.65 62.51" style="fill:#d4d4d4"></polyline><path d="M437,77.13a.51.51,0,0,1-.4-.2L416.69,50.11a.51.51,0,0,1,.06-.67l20.77-19.36a.5.5,0,0,1,.69.73L417.76,49.87,437.15,76,460.4,62.08a.5.5,0,0,1,.51.86L437.27,77.06A.48.48,0,0,1,437,77.13Z" style="fill:#263238"></path><path d="M398.6,60.86s21,28.05,21.7,29.65,2.77,2.38,5.42.21,12.84-8,14.49-9.73,1.09-2.92.36-4.52-19.84-28.8-22-30.95-3.75-.24-5.67.87-13.17,8.88-15.53,11.17S398.6,60.86,398.6,60.86Z" style="fill:#d4d4d4"></path><path d="M422.65,92.56a3.17,3.17,0,0,1-.73-.09,3,3,0,0,1-2.08-1.75c-.52-1.14-13.13-18.17-21.54-29.43-.51-.17-1.92-.74-2.2-1.87a2.31,2.31,0,0,1,.9-2.22c2.33-2.26,13.59-10.06,15.62-11.24.36-.21.7-.44,1-.67,1.48-1,3.17-2.17,5.24-.13,2.29,2.26,21.37,29.41,22.14,31.1s1.42,3.12-.46,5.08c-.93,1-4.2,3-7.66,5.21-2.79,1.76-5.67,3.57-6.87,4.55A5.42,5.42,0,0,1,422.65,92.56ZM416.55,45a4.59,4.59,0,0,0-2.34,1.08c-.35.24-.71.49-1.09.7-2,1.17-13.13,8.88-15.43,11.1-.34.33-.73.82-.62,1.25.16.64,1.29,1.1,1.67,1.21a.53.53,0,0,1,.26.18c2.15,2.88,21,28.14,21.75,29.75a2,2,0,0,0,1.4,1.19,4,4,0,0,0,3.25-1.17c1.25-1,4-2.77,7-4.63,3.26-2,6.63-4.17,7.47-5,1.42-1.47,1-2.41.28-4-.59-1.3-19.66-28.55-21.94-30.8A2.31,2.31,0,0,0,416.55,45Z" style="fill:#263238"></path><path d="M182.61,152.54s-2.47,15.6-2.86,18.57-10.4,1.58-13,1.38-11.94.16-14-1.74,3.69-4.39,3.69-4.39-5.19-1.38-6.16-3.52,5.35-2.17,5.35-2.17-2.3-3.47-1-5.79,11.41-11.79,18.06-10.95S182.61,152.54,182.61,152.54Z" style="fill:#fff"></path><path d="M174.13,173.48c-1.86,0-4-.16-6.2-.38l-1.2-.11c-.55,0-1.47-.06-2.53-.08-5.07-.1-10.16-.31-11.76-1.79a1.67,1.67,0,0,1-.58-1.54c.22-1.27,2-2.44,3.26-3.11-1.68-.57-4.5-1.75-5.26-3.42a1.33,1.33,0,0,1,.06-1.33c.73-1.15,3.42-1.45,4.89-1.53-.64-1.22-1.65-3.67-.59-5.56,1.36-2.44,11.64-12.06,18.55-11.2s10.16,8.59,10.3,8.92a.42.42,0,0,1,0,.27c0,.15-2.47,15.62-2.85,18.56C180,172.94,177.54,173.48,174.13,173.48Zm-2.3-29.11c-6.46,0-15.63,8.76-16.74,10.75s1,5.24,1,5.27a.49.49,0,0,1,0,.51.51.51,0,0,1-.43.27c-1.76,0-4.44.35-4.91,1.09,0,.07-.08.18,0,.38.71,1.57,4.45,2.87,5.83,3.24a.52.52,0,0,1,.37.45.51.51,0,0,1-.3.49c-1.39.6-3.65,1.93-3.82,2.93a.64.64,0,0,0,.27.63c1.46,1.35,7.73,1.47,11.1,1.53,1.08,0,2,0,2.59.08l1.22.12c2.71.26,10.95,1.08,11.23-1.06.36-2.8,2.58-16.85,2.83-18.44-.45-1-3.62-7.45-9.45-8.19A7,7,0,0,0,171.83,144.37Z" style="fill:#263238"></path><path d="M182.61,155.21a5.22,5.22,0,0,0-5.22.29c-2.5,1.78-3,7.62-4.49,9.36s-5.05,2.06-5.05,2.06,4.61-5.9,3.19-7-5.88,3.87-7,4.31-2.3-6.13-1.48-7.94,5.18-9.28,8.85-8.83S181.39,151.5,182.61,155.21Z" style="fill:#263238"></path><path d="M167.85,167.42a.5.5,0,0,1-.4-.81c2.26-2.88,3.82-5.9,3.28-6.33s-3.19,1.7-4.41,2.76a10.32,10.32,0,0,1-2.15,1.63.89.89,0,0,1-1-.29c-1.17-1.25-1.89-6.62-1.12-8.33,0-.09,4.78-9.69,9.37-9.11,3.68.45,10.35,4.14,11.67,8.11a.51.51,0,0,1-.16.54.52.52,0,0,1-.56.06,4.65,4.65,0,0,0-4.69.26c-1.33.94-2.08,3.32-2.74,5.41a11.56,11.56,0,0,1-1.66,3.86c-1.63,1.87-5.24,2.23-5.39,2.24Zm2.68-8.2a1.27,1.27,0,0,1,.82.28c1.39,1.1-.76,4.55-2.35,6.72a6.84,6.84,0,0,0,3.53-1.69A12.09,12.09,0,0,0,174,161c.7-2.25,1.51-4.79,3.11-5.93a5.37,5.37,0,0,1,4.55-.77c-1.89-3.13-7.25-6-10.35-6.39s-7.43,6.54-8.34,8.54c-.71,1.56.27,6.61.93,7.23a17,17,0,0,0,1.77-1.41C167.34,160.83,169.21,159.22,170.53,159.22Z" style="fill:#263238"></path><path d="M91.41,56.32S155,122,169.08,130s20.45,16.05,22,19.67S201.35,163.39,206,171s-3.77,4.74-8.39.71-10.5-10.25-12.33-13.34-11.79-9.54-16.55-6.87-3.71,9.61-3.27,14.32.25,10.11-1.11,12.4-4.33.29-4.82-2.19-3.36-16-5-18.08-7.25-7.48-11.12-12.46a35,35,0,0,1-5-8.09l-70-48.28" style="fill:#fff"></path><path d="M162.72,179.69a2,2,0,0,1-.42,0A4.54,4.54,0,0,1,159,176.1c-.6-3.09-3.39-16-4.91-17.86-.59-.73-1.74-2-3.07-3.36-2.35-2.5-5.58-5.92-8-9.11a36.86,36.86,0,0,1-5.05-8.07L68,89.5a.5.5,0,0,1-.13-.7.51.51,0,0,1,.69-.13l70,48.29a.48.48,0,0,1,.18.24,35.41,35.41,0,0,0,5,8c2.44,3.15,5.65,6.55,8,9,1.4,1.49,2.5,2.66,3.11,3.42C156.8,160,160,175.75,160,175.9a3.56,3.56,0,0,0,2.47,2.77,1.33,1.33,0,0,0,1.43-.74c1.14-1.92,1.55-6.66,1-12.09l-.1-1c-.46-4.71-1.1-11.17,3.62-13.82,5-2.83,15.21,3.63,17.23,7.05,1.86,3.14,7.83,9.37,12.23,13.21,3.31,2.89,7.7,4.53,8.69,3.7.19-.17.68-.92-1.06-3.77-2.26-3.72-5.53-8.07-8.41-11.9-3-4-5.66-7.53-6.48-9.42-1.52-3.48-7.83-11.49-21.82-19.44S93.65,59.35,91.05,56.66a.5.5,0,0,1,.72-.69c.64.66,63.68,65.75,77.56,73.63,13.3,7.56,20.29,15.45,22.24,19.91.78,1.78,3.37,5.23,6.37,9.22s6.17,8.22,8.46,12c1.57,2.56,1.84,4.21.85,5-1.81,1.53-7-1.13-10-3.71-4.46-3.89-10.52-10.23-12.43-13.45-1.78-3-11.48-9.16-15.88-6.69-4.15,2.34-3.57,8.17-3.11,12.85l.1,1c.41,4.48.32,10.17-1.18,12.7A2.35,2.35,0,0,1,162.72,179.69Z" style="fill:#263238"></path><path d="M364,351.89s-15.05,4.77-17.94,5.59,0,10.53.58,13,1.62,11.83,3.81,13.57,3.78-4.29,3.78-4.29,2.14,4.92,4.4,5.56,1.36-5.61,1.36-5.61,3.77,1.76,5.87.13,9.95-13,8.14-19.48S364,351.89,364,351.89Z" style="fill:#fff"></path><path d="M358.93,385.91a1.55,1.55,0,0,1-.45-.07c-1.76-.5-3.35-3.12-4.16-4.69-.48,1.33-1.37,3.27-2.6,3.68a1.67,1.67,0,0,1-1.6-.34c-1.7-1.37-2.67-6.37-3.53-11.37-.17-1-.33-1.94-.45-2.49l-.29-1.17c-1.53-6-2.58-11.71.07-12.46,2.84-.81,17.77-5.54,17.92-5.59a.53.53,0,0,1,.28,0c.34.09,8.47,2.21,10.35,8.86s-6.1,18.3-8.31,20c-1.71,1.33-4.29.7-5.59.25.14,1.47.25,4.16-.78,5.06A1.29,1.29,0,0,1,358.93,385.91Zm-4.71-6.61a.49.49,0,0,1,.46.3c.57,1.31,2.42,4.81,4.08,5.28a.35.35,0,0,0,.37-.05c.66-.58.6-3.28.35-5a.5.5,0,0,1,.71-.53s3.52,1.61,5.35.19,9.74-12.67,8-19c-1.59-5.65-8.45-7.82-9.5-8.12-1.54.49-15.1,4.78-17.81,5.55-2.08.59,0,8.62.63,11.26.12.48.22.89.29,1.19.14.57.29,1.48.47,2.54.57,3.33,1.62,9.52,3.17,10.75a.64.64,0,0,0,.66.18c1-.32,1.94-2.75,2.33-4.21a.48.48,0,0,1,.44-.37Z" style="fill:#263238"></path><path d="M361.36,352.28a5.23,5.23,0,0,1,.48,5.21c-1.38,2.74-7.09,4.07-8.58,5.83s-1.29,5.31-1.29,5.31,5.15-5.45,6.48-4.2-2.95,6.39-3.21,7.61,6.41,1.36,8.07.28,8.41-6.51,7.41-10.07S365.2,352.94,361.36,352.28Z" style="fill:#263238"></path><path d="M359,373.56a8.14,8.14,0,0,1-3.86-.69.87.87,0,0,1-.43-.94,10,10,0,0,1,1.29-2.37c.86-1.37,2.66-4.22,2.07-4.77s-3.26,1.52-5.77,4.18a.5.5,0,0,1-.54.13.51.51,0,0,1-.33-.44c0-.16-.19-3.78,1.41-5.66a11.9,11.9,0,0,1,3.57-2.22c2-1,4.21-2.06,4.95-3.51a4.68,4.68,0,0,0-.44-4.69.48.48,0,0,1,0-.56.5.5,0,0,1,.51-.23c4.12.71,8.76,6.75,9.76,10.33,1.25,4.45-7.53,10.56-7.62,10.62A10,10,0,0,1,359,373.56Zm-3.29-1.5c.71.56,5.85.78,7.29-.16,1.84-1.19,8.07-6.4,7.2-9.51s-4.49-7.89-7.86-9.29a5.39,5.39,0,0,1-.09,4.62c-.89,1.75-3.28,2.92-5.4,4a11.84,11.84,0,0,0-3.25,2,6.87,6.87,0,0,0-1.15,3.74c1.91-1.89,5-4.53,6.3-3.32s-.45,3.73-1.91,6A14.51,14.51,0,0,0,355.75,372.06Z" style="fill:#263238"></path><path d="M472.74,427.72s-74.46-53.06-84.48-65.81-18.92-17.83-22.74-18.86-15-8.08-23.23-11.52-4.13,4.43.55,8.39,11.7,8.86,15,10.21,11.2,10.24,9.26,15.34-8.94,5.11-13.67,5.37-10,1.26-12.09,3,.35,4.32,2.88,4.43,16.36.94,18.62,2.27,8.48,6.05,14,9.13a35.65,35.65,0,0,0,8.75,3.78l58.19,62.05" style="fill:#fff"></path><path d="M443.78,456a.49.49,0,0,1-.37-.16l-58.08-61.94a37.85,37.85,0,0,1-8.74-3.79c-3.52-2-7.38-4.65-10.21-6.61-1.66-1.15-3-2.06-3.77-2.53-2.08-1.22-15.25-2.06-18.4-2.2a4.56,4.56,0,0,1-4-2.71,2.32,2.32,0,0,1,.83-2.61c2.28-1.87,7.89-2.8,12.38-3.06l1,0c4.7-.24,10.55-.54,12.24-5,1.79-4.72-5.73-13.39-9-14.71-3.47-1.4-10.64-6.45-15.15-10.29-3-2.53-6.4-7.3-5.16-9.32.68-1.1,2.36-1.08,5.12.09,4.06,1.7,8.86,4.29,13.11,6.58s8.18,4.42,10.06,4.92c4.71,1.27,13.55,7,23,19,9.87,12.55,83.63,65.18,84.38,65.71a.51.51,0,0,1,.11.7.49.49,0,0,1-.69.12c-3.05-2.17-74.63-53.25-84.58-65.91s-18.81-17.7-22.48-18.68c-2-.54-5.83-2.61-10.28-5-4.22-2.28-9-4.86-13-6.54-3.09-1.3-3.76-.7-3.89-.48-.67,1.1,1.6,5.19,5,8,4.46,3.78,11.51,8.75,14.89,10.12,3.68,1.49,11.59,10.59,9.54,16-1.92,5.07-8.4,5.4-13.13,5.64l-1,0c-5.45.31-10.08,1.42-11.8,2.83a1.32,1.32,0,0,0-.52,1.53,3.58,3.58,0,0,0,3.1,2c.16,0,16.23.79,18.86,2.34.83.49,2.16,1.41,3.83,2.57,2.81,1.94,6.65,4.61,10.13,6.56a35.69,35.69,0,0,0,8.61,3.72.51.51,0,0,1,.26.14l58.19,62.06a.49.49,0,0,1,0,.7A.47.47,0,0,1,443.78,456Z" style="fill:#263238"></path><path d="M470.43,230.6S426,234,415.92,232.75s-26.65-3.68-37.06-7.05-22.36-5.2-25.73-6.43.31,4.9,2.76,6.13,10.72,3.37,13.78,4.59a56.21,56.21,0,0,1,7.66,4.29s-8.89,9.49-11,11.33.31,6.13.31,6.13,4,5.81,4.9,6.73,3.37,4.29,6.74,4.29,8.88.31,9.8-1.53a3.15,3.15,0,0,0,0-3.16l7.39-2.35s8.88,4.9,12.86,4.28,11.33-6.12,11.33-6.12l59.42,4.9" style="fill:#fff"></path><path d="M381.15,263.28h-2.9c-3.11,0-5.4-2.55-6.62-3.92l-.48-.51c-.94-.94-4.79-6.57-5-6.81s-2.65-4.71-.21-6.79c1.83-1.57,8.81-9,10.57-10.86a51.24,51.24,0,0,0-7.07-3.92c-1.32-.52-3.62-1.23-6.06-2a68.31,68.31,0,0,1-7.76-2.64c-2-1-4.92-5.14-4.28-6.62.15-.36.61-.9,1.92-.42s4,1.06,7.45,1.8c5.06,1.1,12,2.6,18.26,4.63,11.35,3.67,29.63,6.13,37,7,9.93,1.21,54-2.11,54.41-2.15a.51.51,0,0,1,.54.46.5.5,0,0,1-.46.54c-1.82.14-44.57,3.36-54.61,2.14-7.37-.89-25.73-3.36-37.16-7.06-6.22-2-13.13-3.51-18.17-4.6-3.46-.75-6.19-1.34-7.57-1.84a1.22,1.22,0,0,0-.68-.12,1.31,1.31,0,0,0,.08.58,9.94,9.94,0,0,0,3.75,4.75,67.22,67.22,0,0,0,7.6,2.57c2.46.75,4.78,1.46,6.15,2a56,56,0,0,1,7.74,4.33.45.45,0,0,1,.22.36.49.49,0,0,1-.13.4c-.36.39-8.92,9.54-11.06,11.37-1.81,1.55.39,5.46.41,5.5,1.08,1.57,4.09,5.9,4.82,6.63.14.14.31.33.51.55,1.12,1.26,3.21,3.59,5.88,3.59h1.29c2.95,0,7.39.07,8.06-1.26a2.69,2.69,0,0,0,0-2.65.49.49,0,0,1-.07-.45.51.51,0,0,1,.32-.32l7.39-2.35a.48.48,0,0,1,.39,0c.09.05,8.78,4.8,12.54,4.23s11-6,11.11-6a.59.59,0,0,1,.34-.1l59.42,4.9a.5.5,0,0,1,.46.54.52.52,0,0,1-.54.46l-59.23-4.89c-1.11.82-7.62,5.53-11.4,6.11s-11.64-3.51-13-4.24l-6.62,2.11a3.76,3.76,0,0,1-.23,3.08C387.68,263.08,384.43,263.28,381.15,263.28Z" style="fill:#263238"></path><path d="M368.18,254.77h-.1a.49.49,0,0,1-.39-.59c0-.14.74-3.63,2.23-4.93.43-.38,1.75-1.38,3.42-2.63,2.91-2.2,8.3-6.26,8.83-7.09a14.9,14.9,0,0,1,1.61-3.78.51.51,0,0,1,.68-.19.5.5,0,0,1,.19.68,14,14,0,0,0-1.48,3.38c0,.65-1.28,1.81-9.23,7.8-1.59,1.19-3,2.22-3.36,2.58-1,.9-1.73,3.47-1.91,4.38A.5.5,0,0,1,368.18,254.77Z" style="fill:#263238"></path><path d="M373.35,260.81a.49.49,0,0,1-.38-.18,3.61,3.61,0,0,1,.37-4.64c.57-.57,3.62-2.47,8.2-5.3,2.56-1.59,5.48-3.39,5.77-3.67a16.45,16.45,0,0,0,1.6-4.1.5.5,0,0,1,.62-.34.49.49,0,0,1,.34.62c-.18.62-1.11,3.78-1.85,4.53-.32.31-2.06,1.4-6,3.81-3.33,2.06-7.48,4.63-8,5.15a2.66,2.66,0,0,0-.32,3.3.5.5,0,0,1-.38.82Z" style="fill:#263238"></path><path d="M382,261.15a.49.49,0,0,1-.46-.3.5.5,0,0,1,.26-.66l6-2.58a.49.49,0,0,1,.65.26.51.51,0,0,1-.26.66l-6,2.58A.43.43,0,0,1,382,261.15Z" style="fill:#263238"></path><path d="M377.33,234.78h-.1a.5.5,0,0,1-.4-.58c0-.16.74-3.83,2.4-5.3a.5.5,0,1,1,.66.74c-1.4,1.25-2.07,4.71-2.07,4.74A.51.51,0,0,1,377.33,234.78Z" style="fill:#263238"></path><path d="M22,230.6s44.41,3.37,54.52,2.15,26.65-3.68,37.06-7.05,22.36-5.2,25.73-6.43-.31,4.9-2.76,6.13-10.72,3.37-13.78,4.59a55.55,55.55,0,0,0-7.66,4.29s8.88,9.49,11,11.33-.31,6.13-.31,6.13-4,5.81-4.9,6.73-3.37,4.29-6.74,4.29-8.88.31-9.8-1.53a3.13,3.13,0,0,1,0-3.16L97,255.72s-8.88,4.9-12.86,4.28-11.34-6.12-11.34-6.12l-59.41,4.9" style="fill:#fff"></path><path d="M111.24,263.28c-3.28,0-6.52-.2-7.34-1.83a3.75,3.75,0,0,1-.22-3.08l-6.63-2.11c-1.35.73-9.17,4.82-13,4.24s-10.29-5.29-11.4-6.11l-59.23,4.89a.5.5,0,0,1-.54-.46.5.5,0,0,1,.46-.54l59.41-4.9a.49.49,0,0,1,.34.1c.08.05,7.3,5.44,11.11,6s12.46-4.18,12.55-4.23a.48.48,0,0,1,.39,0l7.39,2.35a.51.51,0,0,1,.32.32.52.52,0,0,1-.07.45,2.63,2.63,0,0,0,0,2.65c.67,1.33,5.12,1.29,8.06,1.26h1.29c2.66,0,4.75-2.33,5.88-3.59.2-.22.37-.41.51-.55.72-.73,3.74-5.06,4.84-6.67,0,0,2.19-3.91.39-5.46-2.14-1.83-10.7-11-11.07-11.37a.53.53,0,0,1-.13-.4.51.51,0,0,1,.22-.36,56.37,56.37,0,0,1,7.75-4.33c1.36-.55,3.69-1.26,6.15-2a67.94,67.94,0,0,0,7.6-2.57A10.06,10.06,0,0,0,140,220.2c.13-.43.07-.57.06-.59H140a1.82,1.82,0,0,0-.58.13c-1.38.5-4.12,1.09-7.58,1.84-5,1.09-11.94,2.58-18.17,4.6-11.42,3.7-29.79,6.17-37.15,7.06-10,1.22-52.8-2-54.61-2.14a.49.49,0,0,1-.46-.54.5.5,0,0,1,.53-.46c.45,0,44.48,3.36,54.42,2.15,7.33-.89,25.62-3.35,37-7,6.28-2,13.21-3.53,18.27-4.63,3.42-.74,6.13-1.32,7.44-1.8s1.78.06,1.93.42c.64,1.48-2.26,5.61-4.29,6.62a68,68,0,0,1-7.75,2.64c-2.44.74-4.74,1.44-6.07,2a52.46,52.46,0,0,0-7.07,3.92c1.77,1.88,8.74,9.29,10.58,10.86,2.43,2.08-.09,6.56-.2,6.75s-4,5.91-5,6.85l-.47.51c-1.23,1.37-3.51,3.92-6.62,3.92h-2.91Z" style="fill:#263238"></path><path d="M124.22,254.77a.5.5,0,0,1-.49-.4c-.18-.91-.88-3.48-1.91-4.38-.41-.36-1.78-1.39-3.36-2.58-8-6-9.23-7.15-9.23-7.8a13.68,13.68,0,0,0-1.49-3.38.5.5,0,0,1,.87-.49,14.54,14.54,0,0,1,1.62,3.78c.52.83,5.91,4.89,8.83,7.09,1.67,1.25,3,2.25,3.42,2.63,1.49,1.3,2.2,4.79,2.23,4.93a.5.5,0,0,1-.39.59Zm-14-15.29Z" style="fill:#263238"></path><path d="M119,260.81a.47.47,0,0,1-.31-.12.49.49,0,0,1-.07-.7,2.66,2.66,0,0,0-.31-3.3c-.53-.52-4.68-3.09-8-5.15-3.9-2.41-5.64-3.5-6-3.81-.75-.75-1.68-3.91-1.86-4.53a.5.5,0,0,1,1-.28,17.1,17.1,0,0,0,1.6,4.1c.3.28,3.21,2.08,5.78,3.67a96.87,96.87,0,0,1,8.19,5.3,3.61,3.61,0,0,1,.38,4.64A.5.5,0,0,1,119,260.81Z" style="fill:#263238"></path><path d="M110.42,261.15a.48.48,0,0,1-.2,0l-6-2.58a.51.51,0,0,1-.27-.66.5.5,0,0,1,.66-.26l6,2.58a.51.51,0,0,1,.26.66A.5.5,0,0,1,110.42,261.15Z" style="fill:#263238"></path><path d="M115.07,234.78a.49.49,0,0,1-.49-.41s-.67-3.49-2.08-4.74a.5.5,0,0,1,0-.7.5.5,0,0,1,.71,0c1.66,1.47,2.36,5.14,2.39,5.3a.5.5,0,0,1-.4.58Z" style="fill:#263238"></path><path d="M14.17,407.82s26.29-14,34.95-21.63,20.63-14,20.63-14l14-11.65,15.65,15.31-11,17s1,10.31-4.32,17.64-24.64,25-24.64,25L17.6,471.12" style="fill:#d4d4d4"></path><path d="M17.6,471.62a.48.48,0,0,1-.38-.18.49.49,0,0,1,.05-.7l41.84-35.67c.18-.16,19.32-17.68,24.55-24.88s4.24-17.19,4.23-17.3a.53.53,0,0,1,.08-.32l10.76-16.63-15-14.71L70.07,372.59a.16.16,0,0,1-.08.06c-.12.06-12,6.39-20.54,13.91S14.67,408.13,14.4,408.27a.5.5,0,0,1-.67-.21.51.51,0,0,1,.2-.68c.27-.14,26.34-14,34.86-21.56,8.32-7.37,19.85-13.58,20.68-14l13.94-11.61a.49.49,0,0,1,.67,0l15.65,15.31a.51.51,0,0,1,.07.63L88.9,393c.12,1.45.63,10.86-4.43,17.81-5.29,7.28-23.91,24.32-24.7,25L17.92,471.5A.49.49,0,0,1,17.6,471.62Z" style="fill:#263238"></path><path d="M86.73,391a.49.49,0,0,1-.35-.15l-16.31-16a.5.5,0,0,1,.7-.72l16.31,16a.5.5,0,0,1-.35.86Z" style="fill:#263238"></path><path d="M94.8,379.54a2.34,2.34,0,1,1,2.34-2.34A2.34,2.34,0,0,1,94.8,379.54Zm0-3.68a1.34,1.34,0,1,0,1.34,1.34A1.35,1.35,0,0,0,94.8,375.86Z" style="fill:#263238"></path><path d="M140.53,335.68s7.35,8.41,9.45,10,.53,6-.26,8.15-5.25,7.88-8.93,9.46-1.32-3.42-1.32-3.42a13.34,13.34,0,0,1-7.09,3.94c-4.73,1.05-2.89-3.42-2.89-3.42s-3.15,2.9-5.78,2.63-2.37-3.94-2.37-3.94,4.73-15.24,9.2-18.92A22.61,22.61,0,0,1,140.53,335.68Z" style="fill:#fff"></path><path d="M131.1,364.46a2.41,2.41,0,0,1-2-.76,2.65,2.65,0,0,1-.48-2c-1.22.87-3.2,2-5,1.82-2.46-.25-2.92-3-2.82-4.47a.53.53,0,0,1,0-.12c.19-.63,4.82-15.42,9.35-19.15a22.82,22.82,0,0,1,10.23-4.58.51.51,0,0,1,.45.17c.08.08,7.35,8.38,9.39,9.91,2.48,1.86.6,6.84-.1,8.72-.86,2.3-5.45,8.13-9.21,9.75-.4.17-1.65.7-2.36,0a2.32,2.32,0,0,1-.28-2.11,14.86,14.86,0,0,1-5.85,2.7A6.73,6.73,0,0,1,131.1,364.46Zm-1.61-4.58a.55.55,0,0,1,.28.09.49.49,0,0,1,.18.6c-.19.48-.58,1.85,0,2.49s1.54.44,2.36.25a13,13,0,0,0,6.82-3.77.5.5,0,0,1,.84.53c-.54,1.13-.91,2.61-.59,2.94.11.11.5.13,1.25-.19,3.6-1.55,7.94-7.24,8.66-9.18.58-1.52,2.32-6.16.44-7.57s-8.18-8.5-9.36-9.85a22.24,22.24,0,0,0-9.47,4.32c-4.17,3.43-8.7,17.59-9,18.62,0,.44-.06,3.16,1.92,3.36,2.37.24,5.36-2.48,5.39-2.5A.51.51,0,0,1,129.49,359.88Z" style="fill:#263238"></path><path d="M146,341.73s-4.2,1.31-4.46,3.41,2.89,5,2.89,5a102.17,102.17,0,0,1-9.73,3.68c-2.36.52-8.4-3.95-7.35-7.62a20.32,20.32,0,0,1,6-8.94c1.58-1.05,7.1-1.58,7.1-1.58Z" style="fill:#263238"></path><path d="M134.33,354.36c-1.68,0-4-1.46-5.54-3.05-1.67-1.78-2.34-3.64-1.88-5.25a20.85,20.85,0,0,1,6.24-9.21c1.64-1.09,6.75-1.61,7.33-1.66a.49.49,0,0,1,.41.16l5.52,6a.51.51,0,0,1,.12.47.54.54,0,0,1-.34.35c-1.08.34-3.93,1.54-4.12,3s1.91,3.8,2.73,4.56a.48.48,0,0,1,.16.45.51.51,0,0,1-.3.38,98.66,98.66,0,0,1-9.81,3.7A2.18,2.18,0,0,1,134.33,354.36Zm6-18.15c-1.67.17-5.48.7-6.62,1.47a19.94,19.94,0,0,0-5.84,8.65c-.36,1.24.25,2.8,1.65,4.29,1.76,1.87,4.11,2.92,5.12,2.71a87.84,87.84,0,0,0,8.94-3.36c-1-1-2.72-3.1-2.5-4.89s2.78-3.06,4.09-3.57Z" style="fill:#263238"></path><path d="M83.73,360.56s23.69-16.73,28.15-20.15a84.47,84.47,0,0,1,22.34-11c7.36-2.1,15.76-4.73,20.76-7.36s7.88-3.15,6.57.26-9.73,9.46-12.62,11-10.51,4.47-13.13,6.83-2.63,7.88,1.57,9.46S150,348.3,150,348.3s8.68-2.1,6.84.79-12.62,9.19-20,10.51-25.75,3.41-27.33,4.46-10.14,11.81-10.14,11.81Z" style="fill:#fff"></path><path d="M99.38,376.37a.5.5,0,0,1-.35-.14L83.38,360.92a.5.5,0,0,1,.06-.77c.24-.16,23.73-16.76,28.14-20.13,4.62-3.54,15.23-9,22.5-11.12,6.35-1.82,15.39-4.54,20.66-7.32,5.12-2.7,6.52-2.38,7.16-1.81.86.76.3,2.22.11,2.69-1.43,3.74-10.33,9.93-12.84,11.3-.95.52-2.36,1.16-4,1.89-3.26,1.48-7.33,3.32-9.05,4.87a5.57,5.57,0,0,0-1.54,5.06,4.55,4.55,0,0,0,3,3.56c4,1.49,12.19-1.29,12.27-1.31,1.56-.38,6.56-1.47,7.55-.07.22.29.37.81-.13,1.59-1.88,2.95-12.62,9.36-20.31,10.74-2.71.48-6.84,1.06-11.21,1.68-6.69.94-15,2.11-15.92,2.71-1.24.83-7.66,8.73-10,11.7a.52.52,0,0,1-.36.19ZM84.51,360.62l14.82,14.51c1.76-2.21,8.45-10.51,9.91-11.48,1-.68,6.85-1.54,16.34-2.87,4.36-.62,8.48-1.2,11.18-1.68,7.32-1.3,17.89-7.54,19.64-10.28.17-.28.19-.44.16-.48-.36-.51-3.38-.3-6.46.44-.3.11-8.58,2.92-12.9,1.3a5.63,5.63,0,0,1-3.6-4.32,6.63,6.63,0,0,1,1.86-6c1.84-1.65,6-3.53,9.31-5,1.61-.73,3-1.36,3.92-1.86,3.1-1.69,11.19-7.66,12.39-10.78.31-.8.37-1.4.16-1.58s-1.24-.58-6,1.94c-5.36,2.82-14.47,5.57-20.85,7.4-7.17,2.05-17.62,7.47-22.17,10.95C108.12,343.92,87.93,358.21,84.51,360.62Z" style="fill:#263238"></path></g></svg>
