<svg xmlns="http://www.w3.org/2000/svg" viewBox="0 0 500 500"><g id="freepik--background-simple--inject-1"><path d="M63.6,210.35C86.55,290.24,184,357.72,262.1,311.43c17.35-10.29,28.92-28.53,49.45-34.15,16.84-4.61,38.85,10.07,63.72,9.06,47.64-1.95,93.64-56.12,55.22-102.81C402.88,150,344,154.43,307.3,144.7,262.88,133,240.86,98,199.69,81.83,118.93,50.16,39.86,127.67,63.6,210.35Z" style="fill:#4472C4"></path><path d="M63.6,210.35C86.55,290.24,184,357.72,262.1,311.43c17.35-10.29,28.92-28.53,49.45-34.15,16.84-4.61,38.85,10.07,63.72,9.06,47.64-1.95,93.64-56.12,55.22-102.81C402.88,150,344,154.43,307.3,144.7,262.88,133,240.86,98,199.69,81.83,118.93,50.16,39.86,127.67,63.6,210.35Z" style="fill:#fff;opacity:0.9"></path></g><g id="freepik--Shadow--inject-1"><ellipse id="freepik--path--inject-1" cx="250" cy="416.24" rx="193.89" ry="11.32" style="fill:#f5f5f5"></ellipse></g><g id="freepik--Board--inject-1"><rect x="318.85" y="163.52" width="2.17" height="249.41" transform="translate(639.87 576.45) rotate(180)" style="fill:#263238"></rect><path d="M318.3,408.59h3.26a4.34,4.34,0,0,1,4.35,4.34H314A4.34,4.34,0,0,1,318.3,408.59Z" style="fill:#263238"></path><polygon points="247.29 304.47 349.8 304.47 353.02 162.81 250.51 162.81 247.29 304.47" style="fill:#4472C4"></polygon><polygon points="245.53 301.77 347.33 301.77 352.37 162.81 250.57 162.81 245.53 301.77" style="fill:#fff"></polygon><polygon points="245.53 301.77 347.33 301.77 352.37 162.81 250.57 162.81 245.53 301.77" style="fill:#4472C4;opacity:0.2"></polygon><path d="M250.69,165.12H352.84a2.31,2.31,0,0,0,2.32-2.31h0a2.31,2.31,0,0,0-2.32-2.31H250.69a2.31,2.31,0,0,0-2.32,2.31h0A2.31,2.31,0,0,0,250.69,165.12Z" style="fill:#263238"></path><path d="M264.39,236.65q.81-20.53,1.66-41.08l.69-17.21c0-1-1.56-1-1.6,0q-.83,20.53-1.67,41.08l-.69,17.21c0,1,1.57,1,1.61,0Z" style="fill:#fafafa"></path><path d="M263.51,181.29q29.24.08,58.48-.24l16.5-.21a.8.8,0,0,0,0-1.6q-29.25.42-58.49.46H263.51a.8.8,0,0,0,0,1.6Z" style="fill:#fafafa"></path><path d="M336.64,179.68q-.83,20.53-1.67,41.08L334.28,238c0,1,1.56,1,1.6,0q.83-20.53,1.67-41.07l.69-17.22c0-1-1.56-1-1.6,0Z" style="fill:#fafafa"></path><path d="M336.8,234.48q-29.24-.06-58.48.24-8.25.09-16.49.21a.8.8,0,0,0,0,1.6q29.24-.42,58.48-.46,8.25,0,16.49,0a.81.81,0,0,0,0-1.61Z" style="fill:#fafafa"></path><path d="M284.1,242.51l34.42.64,9.13.17a.81.81,0,0,0,0-1.61l-35.44-.65-8.11-.15a.8.8,0,0,0,0,1.6Z" style="fill:#fafafa"></path><path d="M286.13,280.84l19.75.37a.8.8,0,0,0,0-1.6l-19.75-.37a.8.8,0,0,0,0,1.6Z" style="fill:#fafafa"></path><path d="M291.62,285.06c4.74.42,9.5.05,14.26.26,1,.05,1-1.56,0-1.6-4.76-.22-9.52.16-14.26-.27-1-.09-1,1.52,0,1.61Z" style="fill:#fafafa"></path><path d="M274.08,189.35c15.29-.41,30.59.44,45.88.6,3.76,0,7.53.05,11.29,0a.8.8,0,0,0,0-1.6c-15.28.41-30.59-.44-45.87-.6-3.77,0-7.53,0-11.3.05a.8.8,0,0,0,0,1.6Z" style="fill:#fafafa"></path><path d="M272.85,228.27c18.56.35,37.13.56,55.69,1a.82.82,0,0,0,.8-.8c.6-13.22,1.34-26.44,1.57-39.67a.81.81,0,0,0-1.61,0c-.22,13.23-1,26.45-1.56,39.67.26-.27.53-.54.8-.8-18.56-.47-37.13-.68-55.69-1a.8.8,0,0,0,0,1.6Z" style="fill:#fafafa"></path><path d="M273.68,189.24c14.4,10.27,28.45,21,42.71,31.47q5.83,4.29,11.74,8.48c.85.59,1.65-.79.81-1.39-14.55-10.29-28.72-21.12-43.07-31.68q-5.67-4.17-11.38-8.26c-.84-.6-1.64.79-.81,1.38Z" style="fill:#fafafa"></path><path d="M329.73,187.38c-15.41,9.86-30.08,20.85-45.18,31.17-4.1,2.8-8.22,5.56-12.41,8.22-.87.55-.06,1.94.81,1.38,15.56-9.89,30.37-20.93,45.56-31.37,4-2.73,8-5.42,12-8,.87-.55.06-1.94-.81-1.38Z" style="fill:#fafafa"></path><path d="M273.94,228.88c.09-13.44.22-26.91.94-40.33.06-1-1.54-1-1.6,0-.73,13.42-.85,26.89-.94,40.33a.8.8,0,0,0,1.6,0Z" style="fill:#fafafa"></path><path d="M271.79,247.27c15.29-.14,30.59.49,45.87.7,3.77.05,7.53.08,11.29.05a.81.81,0,0,0,0-1.61c-15.28.15-30.58-.48-45.86-.69-3.77-.05-7.53-.08-11.3-.05a.8.8,0,0,0,0,1.6Z" style="fill:#fafafa"></path><path d="M271.15,271.28c18.56.35,37.13.61,55.69,1a.81.81,0,0,0,.8-.8c.4-8.15.94-16.3,1-24.47a.81.81,0,0,0-1.61,0c0,8.17-.56,16.32-1,24.47l.8-.8c-18.56-.42-37.13-.68-55.69-1a.8.8,0,0,0,0,1.6Z" style="fill:#fafafa"></path><path d="M272.26,271.36c-.11-8.29-.19-16.61.33-24.89.07-1-1.53-1-1.6,0-.52,8.28-.44,16.6-.33,24.89a.8.8,0,0,0,1.6,0Z" style="fill:#fafafa"></path><path d="M318.72,288.12a4.34,4.34,0,0,1-4.09-3,5.36,5.36,0,0,1,1.56-5.49,4.75,4.75,0,0,1,5.43-.2,6.1,6.1,0,0,1,3,4.13,2.58,2.58,0,0,1-1.15,2.88,10.17,10.17,0,0,1-1.55.77,2.48,2.48,0,0,1-1.76.28c-1-.33-1.4,1.22-.42,1.54,1.33.44,2.76-.27,3.94-.87a4.33,4.33,0,0,0,2.51-2.87c.53-2.47-.91-5.1-2.81-6.59s-5-2.24-7.29-1a6.88,6.88,0,0,0-3.23,6.86,6,6,0,0,0,5.85,5.1.8.8,0,0,0,0-1.6Z" style="fill:#fafafa"></path></g><g id="freepik--character-3--inject-1"><polygon points="373.7 404.64 366.48 402.96 369.42 386.02 376.64 387.69 373.7 404.64" style="fill:#ffc3bd"></polygon><path d="M366.29,402l8.12,1.88a.54.54,0,0,1,.42.62l-1.09,6.51a1.33,1.33,0,0,1-1.57,1c-2.81-.7-4.12-1.18-7.69-2-2.19-.51-10.73-2.3-13.76-3s-2.25-3.68-.9-3.65c6,.12,12.72-.05,15.13-1.18A2,2,0,0,1,366.29,402Z" style="fill:#263238"></path><polygon points="376.64 387.7 369.42 386.03 367.9 394.76 375.13 396.43 376.64 387.7" style="opacity:0.2"></polygon><path d="M386.53,220.47s-10,60.35-13,81.4c-3.25,23.05-8.36,90.37-8.36,90.37l13.35,2.48s10.78-64.1,16.08-86.51c5.75-24.32,18.41-87.74,18.41-87.74Z" style="fill:#4472C4"></path><path d="M386.53,220.47s-10,60.35-13,81.4c-3.25,23.05-8.36,90.37-8.36,90.37l13.35,2.48s10.78-64.1,16.08-86.51c5.75-24.32,18.41-87.74,18.41-87.74Z" style="opacity:0.4"></path><path d="M402.6,245.22c-5.12,12.79-5.7,34.53-3.62,43.44,3.14-14.63,6.74-32.13,9.51-45.74C407.5,239.43,405.71,237.44,402.6,245.22Z" style="opacity:0.30000000000000004"></path><polygon points="378.88 394.95 364.58 392.31 364.36 386.59 380.56 390.67 378.88 394.95" style="fill:#4472C4"></polygon><path d="M363.44,402.71a9.61,9.61,0,0,0,2,.18.18.18,0,0,0,.16-.1.22.22,0,0,0,0-.19c-.2-.21-1.92-2.08-2.88-1.94a.64.64,0,0,0-.5.39.92.92,0,0,0,0,1A2,2,0,0,0,363.44,402.71Zm1.58-.17c-1.35,0-2.29-.3-2.55-.71a.62.62,0,0,1,0-.63.3.3,0,0,1,.24-.2C363.25,400.93,364.31,401.81,365,402.54Z" style="fill:#4472C4"></path><path d="M365.39,402.89h.08a.18.18,0,0,0,.12-.12c0-.08.67-2.12.11-3a.87.87,0,0,0-.66-.4.66.66,0,0,0-.73.36c-.35.75.38,2.51,1,3.11Zm-.31-3.16a.56.56,0,0,1,.33.23,3.84,3.84,0,0,1-.06,2.41,3.53,3.53,0,0,1-.73-2.48.32.32,0,0,1,.38-.17Z" style="fill:#4472C4"></path><path d="M394.21,163.85c-2.41,6.07-4.95,12-7.66,17.93-1.36,2.95-2.74,5.9-4.2,8.83s-2.94,5.86-4.55,8.77l-.6,1.09-.32.57-.41.66a12.85,12.85,0,0,1-.84,1.28c-.29.41-.59.82-.9,1.19a30,30,0,0,1-4,4.06,49.89,49.89,0,0,1-8.73,5.94,81.57,81.57,0,0,1-18.81,7.25l-1.78-5.27c2.74-1.33,5.6-2.79,8.28-4.34s5.34-3.16,7.81-4.92a47.6,47.6,0,0,0,6.73-5.62,22.16,22.16,0,0,0,2.54-3.08c.19-.25.34-.52.5-.78a5.35,5.35,0,0,0,.43-.77l.2-.38.25-.51.5-1.05c2.65-5.67,5.17-11.55,7.66-17.42l7.46-17.67Z" style="fill:#ffc3bd"></path><path d="M381.91,161c7.17-7.08,16.29-6.48,16.2.91-1,10.82-6.67,17.52-12.11,26.57l-14.11-10.89A43.94,43.94,0,0,1,381.91,161Z" style="fill:#263238"></path><polygon points="420.47 408.67 413.06 408.67 412.09 391.5 419.51 391.5 420.47 408.67" style="fill:#ffc3bd"></polygon><path d="M412.67,407.81H421a.53.53,0,0,1,.55.51l.4,6.59a1.31,1.31,0,0,1-1.3,1.31c-2.9-.05-4.28-.22-7.95-.22-2.25,0-8.12.24-11.23.24s-3-3.08-1.71-3.36c5.92-1.25,9.54-3,11.63-4.61A2.07,2.07,0,0,1,412.67,407.81Z" style="fill:#263238"></path><polygon points="419.51 391.5 412.09 391.5 412.59 400.35 420.01 400.35 419.51 391.5" style="opacity:0.2"></polygon><path d="M401,220.09s-.71,56.66.49,77.88c1.32,23.25,7.91,100.25,7.91,100.25H423s-.4-75.13.41-98.14c.89-25,3.19-80,3.19-80Z" style="fill:#4472C4"></path><path d="M401,220.09s-.71,56.66.49,77.88c1.32,23.25,7.91,100.25,7.91,100.25H423s-.4-75.13.41-98.14c.89-25,3.19-80,3.19-80Z" style="opacity:0.4"></path><polygon points="423.54 398.22 408.87 398.22 408.05 393.06 424.25 393.87 423.54 398.22" style="fill:#4472C4"></polygon><path d="M410,409.1a9.5,9.5,0,0,0,2-.26.2.2,0,0,0,.14-.14.17.17,0,0,0-.08-.17c-.23-.17-2.33-1.6-3.24-1.25a.65.65,0,0,0-.4.49,1,1,0,0,0,.22.94A2,2,0,0,0,410,409.1Zm1.5-.51c-1.33.26-2.3.22-2.65-.13a.62.62,0,0,1-.12-.61.32.32,0,0,1,.19-.25C409.45,407.41,410.68,408,411.54,408.59Z" style="fill:#4472C4"></path><path d="M412,408.84l.07,0a.18.18,0,0,0,.1-.14c0-.09.17-2.22-.58-2.94a.82.82,0,0,0-.73-.24.68.68,0,0,0-.63.52c-.17.81.94,2.36,1.68,2.8Zm-1-3a.5.5,0,0,1,.37.15,3.82,3.82,0,0,1,.49,2.35c-.64-.54-1.38-1.72-1.27-2.25,0-.1.08-.22.33-.25Z" style="fill:#4472C4"></path><path d="M390.26,171.89a19.12,19.12,0,0,1,6.74-4c-2.13,7.54-6.64,13.27-11,20.51l-4.83-3.73C382.24,181.14,386.32,175.25,390.26,171.89Z" style="opacity:0.30000000000000004"></path><path d="M344.27,215.17l-8.5,2.83,4.54,8.78s4.58-4.21,5.48-6.59Z" style="fill:#ffc3bd"></path><polygon points="331.8 222.92 336.42 226.67 340.31 226.78 335.77 218 331.8 222.92" style="fill:#ffc3bd"></polygon><polygon points="342.62 226.89 298.49 199.93 299 199.07 343.81 224.89 342.62 226.89" style="fill:#263238"></polygon><path d="M386.53,220.47h39.65c.28-3.54-.54-15.06.07-29.73a188.37,188.37,0,0,1,3.94-32.34c.18-.8.36-1.59.55-2.39,0,0-2-.41-4.89-.83-2.39-.35-5.39-.71-8.33-.85a147.89,147.89,0,0,0-16.85,0c-2.59.24-5.12.67-7.14,1.06-2.58.52-4.1,1-4.1,1S379.66,178.78,386.53,220.47Z" style="fill:#263238"></path><path d="M426.25,190.74a188.37,188.37,0,0,1,3.94-32.34c-2.65-.23-5.55.54-6.3,4.82C423.08,167.82,422.47,178.13,426.25,190.74Z" style="opacity:0.30000000000000004"></path><path d="M435.22,161.27c.63,1.25,1.16,2.34,1.67,3.53s1,2.33,1.5,3.51q1.44,3.52,2.63,7.17c.77,2.44,1.51,4.9,2.08,7.45a60.87,60.87,0,0,1,1.36,7.79l.11,1c0,.39.07,1,.07,1.5a17.32,17.32,0,0,1-.29,2.66,24.86,24.86,0,0,1-1.33,4.31,48.41,48.41,0,0,1-3.66,7.11,83.5,83.5,0,0,1-9.16,12.15l-4.53-3.24c2.16-4.22,4.31-8.58,6.11-12.83A50.86,50.86,0,0,0,434,197.1a15.59,15.59,0,0,0,.52-2.77,5.41,5.41,0,0,0,0-1c0-.06,0-.09,0-.14v-.09l0-.1-.16-.81a90.11,90.11,0,0,0-3.86-13.08c-.81-2.19-1.68-4.36-2.57-6.52s-1.87-4.37-2.76-6.36Z" style="fill:#ffc3bd"></path><path d="M430.74,156c7.7,2.6,12,14.42,14.17,25.33l-15,8.32a44.45,44.45,0,0,1-7.06-20.27C421.32,160,426,154.41,430.74,156Z" style="fill:#263238"></path><path d="M401.47,154.27c4.9-1.16,5.76-4.19,5.43-7.52a19.92,19.92,0,0,0-.39-2.48l6.14-5.1,4.51-3.74c-1.25,5.43-2.66,15.32,1,18.94,0,0-4.15,5-13.89,4.45C395.64,158.34,401.47,154.27,401.47,154.27Z" style="fill:#ffc3bd"></path><path d="M417.76,153.11s-1.76,4.16-12.87,5.75a9.65,9.65,0,0,1,6.5,4.47s8.05-.33,9.17-9.5Z" style="fill:#fff"></path><path d="M402.34,153.5s-4.22,3.89,2.55,5.36a9.65,9.65,0,0,0-6.5,4.47s-3.89-4.47,1.15-9.11Z" style="fill:#fff"></path><path d="M406.51,144.27a19.92,19.92,0,0,1,.39,2.48c2.29-.46,5.35-2.9,5.67-5.24a10.66,10.66,0,0,0,.08-2.34Z" style="opacity:0.2"></path><path d="M419,127.62c-1.56,7.21-2.11,11.5-6.37,14.79a9.6,9.6,0,0,1-15.52-6.91c-.56-6.71,2.1-17.37,9.68-19.41A9.7,9.7,0,0,1,419,127.62Z" style="fill:#ffc3bd"></path><path d="M423,120.08c-10.54,1.42-23.83,3.29-25.51-.51-2.06-4.68,1.55-3.74,3.11-4.68,2.85-1.74,5.14-6.3,8.58-2.78C414.5,117.5,427.17,112.13,423,120.08Z" style="fill:#263238"></path><path d="M422.78,120.64a.23.23,0,0,1-.17-.07.24.24,0,0,1,0-.35c1.42-1.51,2-2.88,1.56-3.88s-2-1.7-4.2-1.75a.23.23,0,0,1-.24-.25.27.27,0,0,1,.25-.25c2.47.06,4.12.79,4.65,2.06.35.84.35,2.29-1.66,4.41A.27.27,0,0,1,422.78,120.64Z" style="fill:#263238"></path><path d="M412.68,119c-2.47,2.42,0,9.42,5.32,13.58,9-4.83,7-15,2-13.58S412.68,119,412.68,119Z" style="fill:#263238"></path><path d="M420.68,135.14a7.89,7.89,0,0,1-4.58,2.72c-2.27.39-2.78-1.71-1.63-3.75,1-1.83,3.48-4.24,5.51-3.7S422.15,133.37,420.68,135.14Z" style="fill:#ffc3bd"></path><path d="M407.64,128.33c-.09.6-.48,1-.87,1s-.63-.56-.54-1.15.48-1,.87-1S407.73,127.74,407.64,128.33Z" style="fill:#263238"></path><path d="M400.93,127.54c-.09.59-.48,1-.87,1s-.63-.56-.54-1.15.48-1,.87-1S401,127,400.93,127.54Z" style="fill:#263238"></path><path d="M403,128.08a22.42,22.42,0,0,1-3.62,4.73,3.4,3.4,0,0,0,2.76.86Z" style="fill:#ed847e"></path><path d="M404.34,135.55a5.2,5.2,0,0,0,3.73-1.53.18.18,0,0,0,0-.25.17.17,0,0,0-.25,0,4.91,4.91,0,0,1-4.12,1.37.17.17,0,0,0-.19.16.16.16,0,0,0,.15.19A5.58,5.58,0,0,0,404.34,135.55Z" style="fill:#263238"></path><path d="M410.05,126.42a.33.33,0,0,0,.17,0,.36.36,0,0,0,.14-.48,3.4,3.4,0,0,0-2.63-1.78.36.36,0,0,0,0,.71,2.63,2.63,0,0,1,2.05,1.41A.36.36,0,0,0,410.05,126.42Z" style="fill:#263238"></path><path d="M398.4,124.9a.36.36,0,0,0,.29-.16,2.92,2.92,0,0,1,2.22-1.34.35.35,0,0,0,.35-.35.35.35,0,0,0-.35-.35h0a3.61,3.61,0,0,0-2.79,1.65.34.34,0,0,0,.09.48A.31.31,0,0,0,398.4,124.9Z" style="fill:#263238"></path><path d="M427.72,214.47l-7.38-1.28,3.79,8.54s6.74,0,6.43-3.51Z" style="fill:#ffc3bd"></path><polygon points="414.83 217.48 418.3 224.38 424.13 221.73 420.34 213.19 414.83 217.48" style="fill:#ffc3bd"></polygon></g><g id="freepik--character-2--inject-1"><path d="M188.31,181.45l-.26.44-.31.55-.62,1.18c-.4.8-.79,1.63-1.15,2.48-.72,1.69-1.43,3.42-2,5.21a79.26,79.26,0,0,0-2.72,11l-.12.7a1.3,1.3,0,0,0,0,.28l0,.21a4.69,4.69,0,0,0,0,.93,9.53,9.53,0,0,0,.33,2.14,21,21,0,0,0,2,4.72,57.35,57.35,0,0,0,6.64,9.19l-2.76,3.23a42.62,42.62,0,0,1-9.3-8.81,25.25,25.25,0,0,1-3.46-6,16.6,16.6,0,0,1-1-3.73,14,14,0,0,1-.12-2.08l0-.53a3,3,0,0,1,0-.48l.07-.79a63.77,63.77,0,0,1,2.38-12.54,55.2,55.2,0,0,1,2.16-6.09c.43-1,.9-2,1.4-3,.26-.5.51-1,.8-1.49l.45-.74c.16-.27.29-.47.54-.85Z" style="fill:#ff8b7b"></path><path d="M190.57,223.77l-3.63,7.65L184.07,225s2.55-5.6,6-5.08Z" style="fill:#ff8b7b"></path><polygon points="181.2 231.42 178.32 226.7 184.07 224.95 186.94 231.42 181.2 231.42" style="fill:#ff8b7b"></polygon><path d="M200.63,408.22a10.09,10.09,0,0,1-2.21-.3.2.2,0,0,1-.07-.36c.29-.19,2.83-1.83,3.81-1.39a.68.68,0,0,1,.39.56,1.13,1.13,0,0,1-.33,1A2.35,2.35,0,0,1,200.63,408.22Zm-1.65-.59c1.46.3,2.55.25,3-.14a.77.77,0,0,0,.2-.71.27.27,0,0,0-.17-.25C201.48,406.29,200,407,199,407.63Z" style="fill:#4472C4"></path><path d="M198.46,407.92l-.1,0a.22.22,0,0,1-.1-.18c0-.1,0-2.51.92-3.32a1.05,1.05,0,0,1,.84-.26.68.68,0,0,1,.67.55c.19.95-1.33,2.75-2.13,3.21Zm1.43-3.39a.61.61,0,0,0-.44.17,4.53,4.53,0,0,0-.78,2.64c.8-.64,1.75-2,1.63-2.57,0-.09-.07-.21-.32-.24Z" style="fill:#4472C4"></path><path d="M252.77,404.52a.19.19,0,0,1-.17-.1.18.18,0,0,1,0-.23c.26-.32,2.59-3.06,3.79-3.06h.07a.66.66,0,0,1,.52.36,1.14,1.14,0,0,1,0,1c-.53,1.1-2.88,1.72-4.23,2Zm3.62-3c-.65,0-2.09,1.36-3.08,2.47,1.83-.43,3.07-1,3.37-1.65a.7.7,0,0,0,0-.67.22.22,0,0,0-.2-.15Z" style="fill:#4472C4"></path><path d="M252.77,404.52h0a.2.2,0,0,1-.15-.13c0-.09-.72-2.25-.08-3.46a1.46,1.46,0,0,1,.88-.74c.53-.16.79,0,.91.23.5.82-.63,3.24-1.38,4A.19.19,0,0,1,252.77,404.52Zm1-4a.79.79,0,0,0-.23,0,1.05,1.05,0,0,0-.65.54,4.6,4.6,0,0,0,0,2.8c.7-1,1.39-2.79,1.09-3.28C253.93,400.59,253.89,400.52,253.73,400.52Z" style="fill:#4472C4"></path><path d="M199.06,147.33c1,5,3.17,15.81-.31,19.13,0,0,1.36,5,10.59,5,10.16,0,4.86-5,4.86-5-5.55-1.32-5.4-5.44-4.44-9.3Z" style="fill:#ff8b7b"></path><path d="M216,135.61a.58.58,0,0,1-.18,0,.4.4,0,0,1-.18-.54,3.94,3.94,0,0,1,2.88-2.2.41.41,0,0,1,.44.35.4.4,0,0,1-.35.44h0a3.16,3.16,0,0,0-2.26,1.77A.39.39,0,0,1,216,135.61Z" style="fill:#263238"></path><path d="M219,140a18.26,18.26,0,0,0,2.92,4,2.91,2.91,0,0,1-2.33.74Z" style="fill:#ff5652"></path><path d="M218.27,138.87c.08.67.51,1.17.95,1.12s.72-.64.64-1.31-.51-1.17-.94-1.12S218.19,138.2,218.27,138.87Z" style="fill:#263238"></path><path d="M218.73,137.62l1.55-.66S219.61,138.32,218.73,137.62Z" style="fill:#263238"></path><polygon points="243.9 407.66 252.06 405.78 248.23 386.75 240.07 388.64 243.9 407.66" style="fill:#ff8b7b"></polygon><polygon points="188.72 407.72 197.1 407.72 196.44 388.33 188.06 388.33 188.72 407.72" style="fill:#ff8b7b"></polygon><path d="M197.76,406.75h-9.41a.67.67,0,0,0-.67.58l-1.07,7.44a1.34,1.34,0,0,0,1.34,1.49c3.28-.05,4.86-.25,9-.25,2.55,0,6.27.27,9.78.27s3.71-3.48,2.24-3.79c-6.56-1.42-7.6-3.36-9.81-5.22A2.17,2.17,0,0,0,197.76,406.75Z" style="fill:#263238"></path><path d="M251.89,403.63l-8.69,3.61a.66.66,0,0,0-.4.78l1.87,7.29a1.34,1.34,0,0,0,1.81.86c3-1.31,4.39-2.09,8.21-3.68,2.36-1,7.32-2.75,10.57-4.1s2.09-4.63.61-4.36c-6.6,1.22-9.73.41-12.49-.46A2.18,2.18,0,0,0,251.89,403.63Z" style="fill:#263238"></path><polygon points="248.23 386.76 250.28 396.95 242.04 398.45 240.06 388.64 248.23 386.76" style="opacity:0.2"></polygon><polygon points="188.06 388.33 196.44 388.33 196.78 398.33 188.4 398.33 188.06 388.33" style="opacity:0.2"></polygon><path d="M184.3,168.36c-3.48.77-7.19,13.28-7.19,13.28l9.83,10.47s8.17-11.76,6.5-16.09C191.71,171.52,188.41,167.46,184.3,168.36Z" style="fill:#4472C4"></path><path d="M184.3,168.36c-3.48.77-7.19,13.28-7.19,13.28l9.83,10.47s8.17-11.76,6.5-16.09C191.71,171.52,188.41,167.46,184.3,168.36Z" style="fill:#fff;opacity:0.7000000000000001"></path><path d="M189.82,176.33c1.76-1.61,3-1.13,3.76.15.8,3.72-3.94,11.51-5.85,14.46C186.85,187.42,185.84,180,189.82,176.33Z" style="opacity:0.4"></path><path d="M228.35,168.61s4,1.4-4,50.55h-34c.57-13.84.59-22.38-6-50.8a100.28,100.28,0,0,1,14.45-1.9,107.55,107.55,0,0,1,15.45,0C220.83,167.07,228.35,168.61,228.35,168.61Z" style="fill:#4472C4"></path><path d="M228.35,168.61s4,1.4-4,50.55h-34c.57-13.84.59-22.38-6-50.8a100.28,100.28,0,0,1,14.45-1.9,107.55,107.55,0,0,1,15.45,0C220.83,167.07,228.35,168.61,228.35,168.61Z" style="fill:#fff;opacity:0.7000000000000001"></path><path d="M228.66,187.47c-.22,2.39-.51,5.08-.89,8.12-2.79-2.51-5.07-9.65-4.23-13.81A24.59,24.59,0,0,1,228.66,187.47Z" style="opacity:0.4"></path><path d="M233,176.82c1.73,4.08,3.6,8.24,5.49,12.28,1,2,2,4,3,6s2.11,3.87,3.24,5.65c.29.44.57.9.87,1.3l.44.62.22.31.11.16.07.08a4.3,4.3,0,0,0,1.38,1.17,12.2,12.2,0,0,0,5.13,1.19,49.1,49.1,0,0,0,12.75-1.4l1.51,4a40.81,40.81,0,0,1-14.13,4.08,18.08,18.08,0,0,1-8.34-1.09,11.67,11.67,0,0,1-4.13-2.86l-.22-.24-.15-.18-.31-.38-.6-.74c-.42-.5-.77-1-1.13-1.5a91.21,91.21,0,0,1-7.33-12.34c-2.14-4.21-4.06-8.42-5.81-12.84Z" style="fill:#ff8b7b"></path><path d="M228.35,168.61c4.17,1,9.29,12.44,9.29,12.44L229,193.75s-11.51-14.49-10.14-18.91C220.29,170.23,223.3,167.37,228.35,168.61Z" style="fill:#4472C4"></path><path d="M228.35,168.61c4.17,1,9.29,12.44,9.29,12.44L229,193.75s-11.51-14.49-10.14-18.91C220.29,170.23,223.3,167.37,228.35,168.61Z" style="fill:#fff;opacity:0.7000000000000001"></path><path d="M264.85,208.78l7.48,2.67.08-7.2s-6.16-1.22-9,.85Z" style="fill:#ff8b7b"></path><polygon points="278.21 212.55 278.71 206.42 272.41 204.25 272.33 211.45 278.21 212.55" style="fill:#ff8b7b"></polygon><path d="M195.44,139.36c1.53,8.17,2,11.67,6.68,15.38,7,5.58,16.75,1.92,17.69-6.54.86-7.62-1.78-19.7-10.24-22A11.34,11.34,0,0,0,195.44,139.36Z" style="fill:#ff8b7b"></path><path d="M214.44,140.92c2.42,4.09-2.09,9.58,2.41,15.25s12.5,14.13,1.11,24-30.86,7-34.55-6.5,5.21-12.85,2.55-22.56-2.11-29.78,11.73-26.44c5.6-9.75,21.26-9.17,26.16-1.84C228,129.06,222.19,136.08,214.44,140.92Z" style="fill:#263238"></path><path d="M216.52,140.91a8,8,0,0,1,.66,4.59c-.32,2-1.87,2-3,.47s-2-4-1.09-5.63S215.7,139.21,216.52,140.91Z" style="fill:#ff8b7b"></path><path d="M215.37,219.16s-4.86,57.49-9.91,89.89c-4.07,26.17-7.28,87.34-7.28,87.34H186.75s-4.06-59.34-2-85.22c5.23-65.5-6.44-70.84,5.57-92Z" style="fill:#4472C4"></path><path d="M203.87,238.58c3,4.31,7,9.28,8.31,14.59-1,9.7-2.11,20.43-3.35,30.75C205.65,275.32,200.17,258.13,203.87,238.58Z" style="opacity:0.4"></path><path d="M224.35,219.16s9.44,64.5,12.76,89.84c3.45,26.35,13.53,85.42,13.53,85.42l-11.19,1.72s-19.09-56.12-22.64-82c-3.87-28.2-22.58-95-22.58-95Z" style="fill:#4472C4"></path><polygon points="252.29 394.47 237.95 396.91 236.32 391.5 251.67 388.87 252.29 394.47" style="fill:#263238"></polygon><polygon points="199.74 396.62 185.19 396.62 184.43 391.52 199.82 391 199.74 396.62" style="fill:#263238"></polygon><path d="M189.82,217.16l-1.53,3.05c-.12.24.16.48.55.48h35.68c.31,0,.56-.15.58-.35l.31-3c0-.21-.25-.39-.58-.39H190.38A.63.63,0,0,0,189.82,217.16Z" style="fill:#263238"></path><path d="M194.45,221h-.92c-.19,0-.33-.1-.31-.21l.43-4c0-.12.17-.21.36-.21h.92c.18,0,.32.09.31.21l-.43,4C194.79,220.92,194.63,221,194.45,221Z" style="fill:#4472C4"></path><path d="M216.81,221h-.92c-.18,0-.32-.1-.31-.21l.43-4c0-.12.18-.21.36-.21h.92c.19,0,.33.09.31.21l-.43,4C217.16,220.92,217,221,216.81,221Z" style="fill:#4472C4"></path></g></svg>